<svg xmlns="http://www.w3.org/2000/svg" viewBox="0 0 1200 630" width="1200" height="630">
  <defs>
    <linearGradient id="bg" x1="0" y1="0" x2="1" y2="1">
      <stop offset="0%" stop-color="#1E3A5F"/>
      <stop offset="100%" stop-color="#4A7DFF"/>
    </linearGradient>
  </defs>
  <rect width="1200" height="630" fill="url(#bg)"/>
  <!-- Book icon -->
  <g transform="translate(440, 140) scale(3)">
    <path d="M0 0 L0 50 C0 50 12 47 18 47 L18 0 Z" fill="white" opacity="0.85"/>
    <path d="M18 0 C18 0 16 2 14 3 C12 4 8 5 6 6 L6 44 C8 43 12 42 14 42 C16 42 18 44 18 44 L18 0 Z" fill="white" opacity="0.95"/>
    <path d="M6 44 C8 45 12 47 14 48 C16 49 18 50 18 50 L18 44 C18 44 16 42 14 42 C12 42 8 43 6 44 Z" fill="white" opacity="0.7"/>
  </g>
  <!-- Tablet icon -->
  <g transform="translate(490, 155) scale(3)">
    <rect x="0" y="0" width="26" height="38" rx="3" fill="white"/>
    <rect x="3" y="4" width="20" height="27" rx="1" fill="#1E3A5F" opacity="0.15"/>
    <circle cx="13" cy="35" r="1.5" fill="white" stroke="#1E3A5F" stroke-width="0.3" opacity="0.7"/>
  </g>
  <!-- Text -->
  <text x="600" y="430" text-anchor="middle" font-family="Arial, Helvetica, sans-serif" font-weight="bold" font-size="72" fill="white" letter-spacing="4">IGNITE ICT</text>
  <text x="600" y="490" text-anchor="middle" font-family="Arial, Helvetica, sans-serif" font-size="28" fill="white" opacity="0.8">Educational Coding Platform</text>
  <text x="600" y="530" text-anchor="middle" font-family="Arial, Helvetica, sans-serif" font-size="22" fill="white" opacity="0.6">AI, ML &amp; Robotics Extensions for Interactive Learning</text>
</svg>
